<svg version="1" xmlns="http://www.w3.org/2000/svg" width="413.333" height="413.333" viewBox="0 0 310.000000 310.000000"><path d="M146.4 65.4c-4.7 2.2-11.4 9-12.7 12.9-.2.8-2 .3-5.5-1.6-7.6-4.1-13.7-4.6-20.3-1.5-14.7 6.9-17.3 17.7-8.6 35.1 3.3 6.7 6 10.1 14.4 18.4 5.7 5.7 9.7 10.3 9.1 10.3-.7 0-2.9-.4-4.8-1-18.1-4.9-38.1-2.2-47.3 6.5-6.1 5.8-8.2 14-5.3 20.9 1.7 4 7.6 9.9 12.2 12.1 4 1.9 4.1 2.3 1.4 6.8-2.6 4.4-3.6 12.4-2.1 17 1.7 4.9 6.5 11.4 10.4 13.7 4.3 2.6 12.9 2.6 19.9 0 7.4-2.8 18.1-11.3 25.7-20.3 3.6-4.2 6.6-7.6 6.7-7.4.2.2-.4 3-1.3 6.2-1.2 4.1-1.7 10.1-1.7 19.1-.1 13-.1 13.1 3.4 20 2.7 5.3 4.6 7.6 8.4 10.1 8.8 6 19.5 3.8 25.9-5.4 1.8-2.5 3.7-5.3 4.3-6.1 1.1-1.5 1.7-1.4 6.6 1.1 9.3 4.7 18.9 3.1 27-4.4 12.1-11.5 3-34.7-21-53.7-6.1-4.7-5.9-4.8 3.5-2.5 4.1.9 11.2 1.6 17.8 1.7 14 .1 19.8-1.8 26.5-8.3 11.8-11.4 8.1-24.7-9.7-34.6-.1 0 1.1-2.7 2.7-5.9 4.6-9.1 3.7-17.1-2.9-25.5-6.6-8.2-16.6-9.1-30.1-2.5-5.8 2.9-9.6 5.9-16.7 13-5.1 5.1-9.3 8.7-9.3 8.2 0-.6.7-4.7 1.6-9.1 4.2-20.8-1.3-37.8-14.1-43.8-5.3-2.5-8-2.4-14.1.5z"/></svg>